<svg width="35" height="35" xmlns="http://www.w3.org/2000/svg" fill="#44444c">
 <g>
  <title>Layer 1</title>
  <path stroke="null" id="svg_1" d="m16.95976,33.54931l-2.47717,1.10675c-1.07732,0.48132 -2.3454,0.14239 -3.0371,-0.81176l-1.59052,-2.19395c-0.20802,-0.28692 -0.52885,-0.47168 -0.88193,-0.50791l-2.70006,-0.27701c-1.17426,-0.12045 -2.10255,-1.04642 -2.22331,-2.21773l-0.2777,-2.69329c-0.03632,-0.3522 -0.22155,-0.67225 -0.50919,-0.87972l-2.19946,-1.58654c-0.95655,-0.68997 -1.29633,-1.95487 -0.8138,-3.02949l1.10954,-2.47096c0.14509,-0.32313 0.14509,-0.69267 0,-1.0158l-1.10954,-2.47096c-0.48253,-1.07462 -0.14275,-2.33952 0.8138,-3.02949l2.19946,-1.58654c0.28764,-0.2075 0.47287,-0.52752 0.50919,-0.87972l0.2777,-2.69329c0.12075,-1.17131 1.04905,-2.09728 2.22331,-2.21773l2.70006,-0.27701c0.35309,-0.03623 0.67391,-0.22099 0.88193,-0.50791l1.59052,-2.19395c0.6917,-0.95415 1.95978,-1.29308 3.0371,-0.81176l2.47717,1.10675c0.32394,0.14473 0.69442,0.14473 1.01835,0l2.47717,-1.10675c1.07732,-0.48132 2.3454,-0.14239 3.0371,0.81176l1.59052,2.19395c0.208,0.28692 0.52885,0.47168 0.88193,0.50791l2.70006,0.27701c1.17426,0.12045 2.10255,1.04642 2.22331,2.21773l0.2777,2.69329c0.03632,0.3522 0.22155,0.67222 0.50919,0.87972l2.19946,1.58654c0.95655,0.68997 1.29633,1.95487 0.8138,3.02949l-1.10954,2.47096c-0.14509,0.32313 -0.14509,0.69267 0,1.0158l1.10954,2.47096c0.48253,1.07462 0.14275,2.33952 -0.8138,3.02949l-2.19946,1.58654c-0.28764,0.20747 -0.47287,0.52752 -0.50919,0.87972l-0.2777,2.69329c-0.12075,1.17131 -1.04905,2.09728 -2.22331,2.21773l-2.70006,0.27701c-0.35309,0.03623 -0.67394,0.22099 -0.88193,0.50791l-1.59052,2.19395c-0.6917,0.95415 -1.95978,1.29308 -3.0371,0.81176l-2.47717,-1.10675c-0.32394,-0.14473 -0.69442,-0.14473 -1.01835,0zm-6.22091,-18.41992l-2.11391,2.10862l7.09645,7.07866l10.89348,-10.86618l-2.11391,-2.10862l-8.77957,8.75756l-4.98253,-4.97004z" fill-rule="evenodd"/>
  <line stroke-linecap="null" stroke-linejoin="null" id="svg_4" y2="28.33914" x2="18.59265" y1="18.11189" x1="8.45282" opacity="undefined" fill-opacity="null" stroke-opacity="null" stroke-width="null" stroke="null" fill="none"/>
  <line stroke-linecap="null" stroke-linejoin="null" id="svg_5" y2="19.51048" x2="20.51573" y1="20.2972" x1="10.55072" opacity="undefined" fill-opacity="null" stroke-opacity="null" stroke-width="null" stroke="null" fill="none"/>
  <line stroke-linecap="null" stroke-linejoin="null" id="svg_6" y2="21.95803" x2="23.74999" y1="14.0035" x1="7.05422" opacity="undefined" fill-opacity="null" stroke-opacity="null" stroke-width="null" stroke="null" fill="none"/>
  <path d="m11.94931,19.24825c0,0 0,0.78671 0,2.0979c0,1.83566 0,2.27272 0,3.05943c0,0.26224 0,0.26224 0.43706,0.26224c0.87412,0 1.95164,-0.10186 3.14685,-0.61189c0.53933,-0.23015 1.22154,-0.52627 1.57342,-0.96154c0.24576,-0.304 0.26834,-0.78573 0.34965,-1.31119c0.09452,-0.61083 0.32157,-1.44518 0.08741,-2.01048c-0.18923,-0.45684 -0.84502,-0.78179 -1.48601,-0.96154c-0.59514,-0.16689 -1.13636,-0.17483 -1.3986,-0.17483c-0.08741,0 -0.08741,0 0,0.17483l0.87412,0.34965l0.78671,0.34965" id="svg_14" opacity="undefined" fill-opacity="null" stroke-opacity="null" stroke-dasharray="null" stroke-width="null" stroke="null" fill="none"/>
  <path id="svg_16" d="m11.07519,21.43356" opacity="NaN" fill-opacity="null" stroke-opacity="null" stroke-dasharray="null" stroke-width="null" stroke="null" fill="none"/>
 </g>
</svg>