<svg width="20" height="20" xmlns="http://www.w3.org/2000/svg">
 <g>
  <title>Layer 1</title>
  <g stroke="null" transform="rotate(90 9.965079307556152,10.025218963623049) " id="svg_1">
   <path stroke="null" d="m0.57173,17.71974l-0.4278,0.83349c-0.18448,0.35943 -0.11528,0.79635 0.17134,1.08178c0.28662,0.28544 0.72535,0.35434 1.08628,0.17062l0.83695,-0.42602l-1.66677,-1.65986l-0.00001,0z" fill="#26457d" id="svg_11"/>
   <path stroke="null" d="m14.42476,1.75071l3.8459,3.82996l-1.02556,1.02131l-3.8459,-3.82996l1.02556,-1.02131z" fill="#e4fbef" id="svg_12"/>
   <path stroke="null" d="m17.56579,4.87839l0.70507,0.70215l-1.02556,1.02131l-0.70507,-0.70215l1.02556,-1.02131z" fill="#d3effb" id="svg_13"/>
   <path stroke="null" d="m5.41781,18.31733c-0.03314,0.01988 -0.0671,0.03856 -0.10144,0.05567c-0.07307,0.03737 -0.14936,0.06879 -0.22801,0.09385c-0.00159,0.00081 -0.00279,0.0012 -0.00438,0.00158l-2.84528,0.91107l-1.66685,-1.65994l0.91487,-2.83348c0.00039,-0.00158 0.00082,-0.00278 0.00159,-0.00436c0.02516,-0.07833 0.05671,-0.1543 0.09423,-0.22749c0.01718,-0.0342 0.03594,-0.0676 0.0559,-0.1006l3.77937,3.7637z" fill="#f1d59d" id="svg_14"/>
   <path stroke="null" d="m18.27227,5.58299l-3.84646,-3.83053l1.21804,-1.21299c0.53111,-0.5289 1.39217,-0.5289 1.92324,0l1.92324,1.91526c0.53111,0.52891 0.53111,1.3864 0,1.91526l-1.21804,1.21299l-0.00001,0z" fill="#df75a5" id="svg_15"/>
   <path stroke="null" d="m19.49035,2.4547l-0.70519,-0.70227c0.53111,0.52891 0.53111,1.3864 0,1.91526l-1.21804,1.21299l0.70519,0.70227l1.21804,-1.21299c0.53107,-0.52887 0.53107,-1.38636 0,-1.91526z" fill="#dd5790" id="svg_16"/>
   <path stroke="null" d="m14.68208,4.05083l-11.79485,11.7464l-0.1849,0.18371c-0.07865,-0.07836 -0.19327,-0.12129 -0.31589,-0.10102l-0.53712,0.0891c-0.24518,0.04096 -0.45803,-0.17102 -0.4173,-0.41557l0.15056,-0.89915c0.01718,-0.0342 0.03594,-0.0676 0.0559,-0.1006c0.06668,-0.11056 0.14734,-0.21356 0.2396,-0.30543l11.52211,-11.4744l1.28189,1.27695z" fill="#ffe07d" id="svg_17"/>
   <path stroke="null" d="m17.24662,6.60436l-11.52211,11.47436c-0.09226,0.09187 -0.19568,0.17221 -0.3067,0.2386c-0.03314,0.01988 -0.0671,0.03856 -0.10144,0.05567l-0.9025,0.14994c-0.24561,0.04057 -0.45842,-0.1714 -0.4173,-0.41557l0.08947,-0.53489c0.02035,-0.1221 -0.02276,-0.23622 -0.10145,-0.31458l0.1849,-0.18371l11.79485,-11.7464l1.28227,1.27657l0.00001,0z" fill="#ffc250" id="svg_18"/>
   <path stroke="null" d="m14.68223,4.05079l-11.9798,11.93015c0.07877,0.07844 0.12172,0.19252 0.10129,0.31474l-0.08951,0.53477c-0.04089,0.24444 0.17188,0.45633 0.41734,0.4156l0.537,-0.08913c0.12273,-0.02038 0.23727,0.02243 0.31604,0.10087l11.9798,-11.93015l-1.28215,-1.27684l0,-0.00001z" fill="#ffd064" id="svg_19"/>
  </g>
 </g>

</svg>