<svg width="20" height="20" xmlns="http://www.w3.org/2000/svg">
 <g>
  <title>Layer 1</title>
  <g stroke="null" id="svg_1">
   <path stroke="null" id="svg_1" fill="#c5f4fc" d="m7.94076,532.61661l-1.20286,-5.27045l-4.39664,-2.06475l-1.91444,2.5079c-0.56909,0.74551 -0.56909,1.95426 0,2.69976l2.83482,3.71354c0.22161,0.29031 0.52217,0.4534 0.83555,0.4534l1.7973,0c0.31341,0 0.61397,-0.16309 0.83556,-0.4534l1.21071,-1.586z"/>
   <path stroke="null" id="svg_2" fill="#7dddfa" d="m1.69262,532.14724l-1.2658,-1.65814c-0.56918,-0.74561 -0.56896,-1.95443 0,-2.69979l1.91461,-2.50808l1.2658,1.65817l-1.91461,2.50809c-0.56898,0.74532 -0.56917,1.95414 0,2.69975z"/>
   <path stroke="null" id="svg_3" fill="#e696a6" d="m13.70338,524.35412l-5.05476,-6.62161c-0.39517,-0.51766 -1.03582,-0.51766 -1.43098,0l-4.60401,6.03114c-0.39517,0.51765 -0.39517,1.35689 0,1.87455l5.05476,6.62162c0.39517,0.51766 1.03582,0.51766 1.43098,0l4.60401,-6.03114c0.39517,-0.51766 0.39517,-1.3569 0,-1.87456z"/>
   <path stroke="null" id="svg_4" fill="#e17888" d="m3.7749,527.15944l-1.16122,-1.52117c-0.39519,-0.51769 -0.39519,-1.35697 0,-1.87466l4.60398,-6.0311c0.3952,-0.5177 1.03588,-0.5177 1.43107,0l1.16121,1.52116c-0.39497,-0.51741 -1.03568,-0.51741 -1.43084,0.00029l-4.60398,6.0311c-0.39517,0.51769 -0.3952,1.35697 -0.00022,1.87438z"/>
  </g>
  <g stroke="null" id="svg_15">
   <path stroke="null" id="svg_11" fill="#c5f4fc" d="m8.42973,13.29504l-1.27693,-4.58808l-4.66737,-1.79742l-2.03233,2.1832c-0.60413,0.64899 -0.60413,1.70124 0,2.35022l3.00938,3.23274c0.23526,0.25272 0.55432,0.3947 0.887,0.3947l1.90797,0c0.33271,0 0.65178,-0.14197 0.88701,-0.3947l1.28526,-1.38066z"/>
   <path stroke="null" id="svg_12" fill="#7dddfa" d="m1.79685,12.88644l-1.34374,-1.44346c-0.60423,-0.64907 -0.604,-1.70139 0,-2.35024l2.03251,-2.18336l1.34374,1.44348l-2.03251,2.18336c-0.60402,0.64882 -0.60422,1.70113 0,2.35021z"/>
   <path stroke="null" id="svg_13" fill="#e696a6" d="m14.5472,6.1023l-5.36602,-5.7643c-0.4195,-0.45064 -1.0996,-0.45064 -1.5191,0l-4.88751,5.25028c-0.4195,0.45063 -0.4195,1.18121 0,1.63185l5.36602,5.76431c0.4195,0.45064 1.0996,0.45064 1.5191,0l4.88751,-5.25028c0.4195,-0.45064 0.4195,-1.18122 0,-1.63186z"/>
   <path stroke="null" id="svg_14" fill="#e17888" d="m4.00735,8.54441l-1.23272,-1.32422c-0.41952,-0.45066 -0.41952,-1.18128 0,-1.63195l4.88748,-5.25025c0.41954,-0.45067 1.09967,-0.45067 1.51919,0l1.23271,1.32421c-0.41929,-0.45042 -1.09945,-0.45042 -1.51895,0.00025l-4.88748,5.25025c-0.4195,0.45066 -0.41954,1.18128 -0.00023,1.6317z"/>
  </g>
 </g>

</svg>